<svg width="292" height="168" viewBox="0 0 292 168" fill="none" xmlns="http://www.w3.org/2000/svg">
<g filter="url(#filter0_d_170_631)">
<rect x="39" y="20" width="214.16" height="90.84" rx="18.36" fill="#F5F5F4" shape-rendering="crispEdges"/>
<rect x="39.3825" y="20.3825" width="213.395" height="90.075" rx="17.9775" stroke="#7F56D9" stroke-width="0.765" shape-rendering="crispEdges"/>
<g filter="url(#filter1_d_170_631)">
<rect x="57.3599" y="40.9399" width="48.96" height="48.96" rx="12.24" fill="#7F56D9"/>
<path d="M84.7002 75.3499H78.4002L77.6502 73.3249H66.3252V54.0499C66.3252 53.1499 67.0752 52.3999 67.9752 52.3999H96.0252C96.9252 52.3999 97.6752 53.1499 97.6752 54.0499V73.3999H86.2002L84.7002 75.3499ZM79.2252 74.2249H84.1752L85.6752 72.1999H96.5502V54.0499C96.5502 53.7499 96.3252 53.5249 96.0252 53.5249H67.9752C67.6752 53.5249 67.4502 53.7499 67.4502 54.0499V72.2749H78.4752L79.2252 74.2249Z" fill="white"/>
<path d="M94.5999 77.6H69.3999C66.6999 77.6 64.5249 75.425 64.5249 72.725V72.125H78.3999L79.1499 74.15H84.0999L85.5999 72.125H99.3999V72.725C99.4749 75.425 97.2249 77.6 94.5999 77.6ZM65.7249 73.325C66.0249 75.125 67.5249 76.475 69.3999 76.475H94.5249C96.3999 76.475 97.9749 75.125 98.1999 73.325H86.1999L84.6999 75.35H78.3999L77.6499 73.325H65.7249Z" fill="white"/>
<path d="M76.525 56.375H70.75V61.4H76.525V56.375Z" fill="white"/>
<path d="M77.0499 61.9249H70.1499V55.7749H77.0499V61.9249ZM71.2749 60.7999H75.9249V56.8999H71.2749V60.7999Z" fill="white"/>
<path d="M76.525 64.3252H70.75V69.3502H76.525V64.3252Z" fill="white"/>
<path d="M77.0499 69.9498H70.1499V63.7998H77.0499V69.9498ZM71.2749 68.8248H75.9249V64.9248H71.2749V68.8248Z" fill="white"/>
<path d="M93.55 58.25H80.125V59.375H93.55V58.25Z" fill="white"/>
<path d="M93.55 66.2749H80.125V67.3999H93.55V66.2749Z" fill="white"/>
</g>
<path d="M132.274 62.3599V59.59L138.745 53.5974C139.296 53.0648 139.758 52.5854 140.13 52.1592C140.509 51.7331 140.796 51.3158 140.992 50.9074C141.187 50.4931 141.285 50.0463 141.285 49.5669C141.285 49.0342 141.163 48.5755 140.921 48.1908C140.678 47.8002 140.346 47.5013 139.926 47.2942C139.506 47.0811 139.03 46.9746 138.497 46.9746C137.941 46.9746 137.455 47.087 137.041 47.3119C136.627 47.5368 136.307 47.8594 136.082 48.2796C135.857 48.6998 135.745 49.1999 135.745 49.78H132.096C132.096 48.5903 132.365 47.5575 132.904 46.6816C133.442 45.8056 134.197 45.128 135.168 44.6486C136.138 44.1692 137.257 43.9295 138.524 43.9295C139.826 43.9295 140.959 44.1603 141.924 44.6219C142.894 45.0777 143.649 45.711 144.188 46.5218C144.726 47.3326 144.995 48.2619 144.995 49.3094C144.995 49.996 144.859 50.6737 144.587 51.3425C144.321 52.0113 143.844 52.754 143.158 53.5708C142.471 54.3816 141.504 55.3552 140.255 56.4916L137.6 59.0928V59.2171H145.235V62.3599H132.274ZM148.127 62.3599V44.178H151.971V52.1947H152.211L158.754 44.178H163.362L156.614 52.319L163.441 62.3599H158.843L153.862 54.8847L151.971 57.193V62.3599H148.127ZM169.592 59.59V47.019H172.77V59.59H169.592ZM164.895 54.8936V51.7153H177.466V54.8936H164.895Z" fill="#101828"/>
<path opacity="0.5" d="M132.568 77.5709L135.807 86.7541H135.935L139.173 77.5709H140.558L136.553 88.48H135.189L131.183 77.5709H132.568ZM142.087 88.48V80.2982H143.344V88.48H142.087ZM142.726 78.9345C142.481 78.9345 142.27 78.8511 142.092 78.6842C141.918 78.5173 141.831 78.3166 141.831 78.0823C141.831 77.8479 141.918 77.6472 142.092 77.4803C142.27 77.3134 142.481 77.23 142.726 77.23C142.971 77.23 143.181 77.3134 143.355 77.4803C143.532 77.6472 143.621 77.8479 143.621 78.0823C143.621 78.3166 143.532 78.5173 143.355 78.6842C143.181 78.8511 142.971 78.9345 142.726 78.9345ZM148.736 88.6504C148.054 88.6504 147.452 88.4782 146.93 88.1337C146.408 87.7857 146 87.2957 145.705 86.6636C145.411 86.0279 145.263 85.2769 145.263 84.4104C145.263 83.551 145.411 82.8053 145.705 82.1732C146 81.5411 146.41 81.0528 146.936 80.7083C147.461 80.3639 148.069 80.1916 148.757 80.1916C149.29 80.1916 149.711 80.2804 150.02 80.458C150.332 80.632 150.57 80.8308 150.734 81.0546C150.901 81.2747 151.03 81.4558 151.123 81.5979H151.229V77.5709H152.486V88.48H151.272V87.2229H151.123C151.03 87.372 150.899 87.5602 150.728 87.7875C150.558 88.0112 150.315 88.2119 149.999 88.3894C149.683 88.5634 149.262 88.6504 148.736 88.6504ZM148.907 87.5212C149.411 87.5212 149.837 87.3898 150.185 87.127C150.533 86.8607 150.798 86.4931 150.979 86.0244C151.16 85.5521 151.25 85.007 151.25 84.3891C151.25 83.7783 151.162 83.2438 150.984 82.7857C150.806 82.3241 150.544 81.9654 150.196 81.7097C149.848 81.4505 149.418 81.3209 148.907 81.3209C148.374 81.3209 147.93 81.4576 147.575 81.731C147.223 82.0009 146.959 82.3685 146.781 82.8337C146.607 83.2953 146.52 83.8138 146.52 84.3891C146.52 84.9715 146.609 85.5006 146.787 85.9764C146.968 86.4487 147.234 86.8252 147.586 87.1057C147.941 87.3827 148.381 87.5212 148.907 87.5212ZM158.393 88.6504C157.605 88.6504 156.925 88.4764 156.353 88.1284C155.785 87.7769 155.347 87.2868 155.038 86.6582C154.732 86.0261 154.58 85.2911 154.58 84.453C154.58 83.6149 154.732 82.8763 155.038 82.2371C155.347 81.5943 155.776 81.0936 156.327 80.735C156.881 80.3727 157.527 80.1916 158.266 80.1916C158.692 80.1916 159.113 80.2627 159.528 80.4047C159.944 80.5467 160.322 80.7776 160.663 81.0972C161.004 81.4132 161.275 81.8323 161.478 82.3543C161.68 82.8763 161.781 83.519 161.781 84.2825V84.8152H155.474V83.7286H160.503C160.503 83.2669 160.411 82.855 160.226 82.4928C160.045 82.1305 159.786 81.8447 159.448 81.6352C159.114 81.4256 158.72 81.3209 158.266 81.3209C157.765 81.3209 157.332 81.4452 156.966 81.6938C156.604 81.9388 156.325 82.2584 156.13 82.6526C155.934 83.0467 155.837 83.4693 155.837 83.9203V84.6448C155.837 85.2627 155.943 85.7864 156.156 86.2161C156.373 86.6423 156.673 86.9672 157.056 87.1909C157.44 87.4111 157.886 87.5212 158.393 87.5212C158.724 87.5212 159.022 87.475 159.288 87.3827C159.558 87.2868 159.791 87.1448 159.986 86.9565C160.181 86.7648 160.332 86.5269 160.439 86.2428L161.653 86.5837C161.526 86.9956 161.311 87.3578 161.009 87.6703C160.707 87.9793 160.334 88.2207 159.89 88.3948C159.446 88.5652 158.947 88.6504 158.393 88.6504ZM167.017 88.6504C166.279 88.6504 165.631 88.4747 165.073 88.1231C164.519 87.7715 164.086 87.2797 163.773 86.6476C163.464 86.0155 163.31 85.2769 163.31 84.4317C163.31 83.5794 163.464 82.8354 163.773 82.1998C164.086 81.5641 164.519 81.0705 165.073 80.719C165.631 80.3674 166.279 80.1916 167.017 80.1916C167.756 80.1916 168.402 80.3674 168.956 80.719C169.514 81.0705 169.947 81.5641 170.256 82.1998C170.569 82.8354 170.725 83.5794 170.725 84.4317C170.725 85.2769 170.569 86.0155 170.256 86.6476C169.947 87.2797 169.514 87.7715 168.956 88.1231C168.402 88.4747 167.756 88.6504 167.017 88.6504ZM167.017 87.5212C167.578 87.5212 168.04 87.3774 168.402 87.0897C168.765 86.8021 169.033 86.4239 169.207 85.9551C169.381 85.4864 169.468 84.9786 169.468 84.4317C169.468 83.8848 169.381 83.3752 169.207 82.9029C169.033 82.4306 168.765 82.0489 168.402 81.7577C168.04 81.4665 167.578 81.3209 167.017 81.3209C166.456 81.3209 165.995 81.4665 165.632 81.7577C165.27 82.0489 165.002 82.4306 164.828 82.9029C164.654 83.3752 164.567 83.8848 164.567 84.4317C164.567 84.9786 164.654 85.4864 164.828 85.9551C165.002 86.4239 165.27 86.8021 165.632 87.0897C165.995 87.3774 166.456 87.5212 167.017 87.5212ZM185.811 80.98H184.49C184.412 80.6 184.275 80.2662 184.08 79.9786C183.888 79.6909 183.654 79.4494 183.377 79.2541C183.104 79.0553 182.8 78.9061 182.466 78.8067C182.132 78.7073 181.784 78.6575 181.422 78.6575C180.762 78.6575 180.163 78.8244 179.627 79.1582C179.094 79.4921 178.67 79.9839 178.354 80.6337C178.041 81.2836 177.885 82.0808 177.885 83.0254C177.885 83.97 178.041 84.7673 178.354 85.4171C178.67 86.067 179.094 86.5588 179.627 86.8926C180.163 87.2264 180.762 87.3933 181.422 87.3933C181.784 87.3933 182.132 87.3436 182.466 87.2442C182.8 87.1448 183.104 86.9974 183.377 86.8021C183.654 86.6032 183.888 86.36 184.08 86.0723C184.275 85.7811 184.412 85.4473 184.49 85.0709H185.811C185.712 85.6284 185.531 86.1274 185.268 86.5677C185.005 87.008 184.679 87.3827 184.288 87.6916C183.897 87.997 183.459 88.2296 182.972 88.3894C182.489 88.5492 181.973 88.6291 181.422 88.6291C180.492 88.6291 179.664 88.4019 178.94 87.9473C178.215 87.4928 177.646 86.8465 177.23 86.0084C176.815 85.1703 176.607 84.176 176.607 83.0254C176.607 81.8749 176.815 80.8805 177.23 80.0425C177.646 79.2044 178.215 78.5581 178.94 78.1036C179.664 77.649 180.492 77.4217 181.422 77.4217C181.973 77.4217 182.489 77.5016 182.972 77.6614C183.459 77.8212 183.897 78.0556 184.288 78.3646C184.679 78.67 185.005 79.0428 185.268 79.4832C185.531 79.92 185.712 80.4189 185.811 80.98ZM191.099 88.6504C190.361 88.6504 189.713 88.4747 189.155 88.1231C188.601 87.7715 188.168 87.2797 187.855 86.6476C187.547 86.0155 187.392 85.2769 187.392 84.4317C187.392 83.5794 187.547 82.8354 187.855 82.1998C188.168 81.5641 188.601 81.0705 189.155 80.719C189.713 80.3674 190.361 80.1916 191.099 80.1916C191.838 80.1916 192.484 80.3674 193.038 80.719C193.596 81.0705 194.029 81.5641 194.338 82.1998C194.651 82.8354 194.807 83.5794 194.807 84.4317C194.807 85.2769 194.651 86.0155 194.338 86.6476C194.029 87.2797 193.596 87.7715 193.038 88.1231C192.484 88.4747 191.838 88.6504 191.099 88.6504ZM191.099 87.5212C191.661 87.5212 192.122 87.3774 192.484 87.0897C192.847 86.8021 193.115 86.4239 193.289 85.9551C193.463 85.4864 193.55 84.9786 193.55 84.4317C193.55 83.8848 193.463 83.3752 193.289 82.9029C193.115 82.4306 192.847 82.0489 192.484 81.7577C192.122 81.4665 191.661 81.3209 191.099 81.3209C190.538 81.3209 190.077 81.4665 189.714 81.7577C189.352 82.0489 189.084 82.4306 188.91 82.9029C188.736 83.3752 188.649 83.8848 188.649 84.4317C188.649 84.9786 188.736 85.4864 188.91 85.9551C189.084 86.4239 189.352 86.8021 189.714 87.0897C190.077 87.3774 190.538 87.5212 191.099 87.5212ZM201.882 85.1348V80.2982H203.139V88.48H201.882V87.095H201.797C201.605 87.5105 201.307 87.8639 200.902 88.1551C200.497 88.4427 199.986 88.5865 199.368 88.5865C198.856 88.5865 198.402 88.4747 198.004 88.2509C197.606 88.0237 197.294 87.6828 197.067 87.2282C196.839 86.7701 196.726 86.193 196.726 85.497V80.2982H197.983V85.4118C197.983 86.0084 198.15 86.4842 198.484 86.8394C198.821 87.1945 199.251 87.372 199.773 87.372C200.085 87.372 200.403 87.2921 200.726 87.1323C201.053 86.9725 201.326 86.7275 201.546 86.3972C201.77 86.067 201.882 85.6462 201.882 85.1348ZM205.442 88.48V80.2982H206.656V81.534H206.741C206.89 81.1291 207.16 80.8006 207.551 80.5485C207.942 80.2964 208.382 80.1703 208.872 80.1703C208.964 80.1703 209.08 80.1721 209.218 80.1756C209.357 80.1792 209.461 80.1845 209.532 80.1916V81.47C209.49 81.4594 209.392 81.4434 209.24 81.4221C209.09 81.3972 208.932 81.3848 208.765 81.3848C208.368 81.3848 208.013 81.4683 207.7 81.6352C207.391 81.7985 207.146 82.0258 206.965 82.317C206.787 82.6046 206.699 82.9331 206.699 83.3024V88.48H205.442ZM216.818 82.1305L215.689 82.4502C215.618 82.2619 215.513 82.0791 215.375 81.9015C215.24 81.7204 215.055 81.5712 214.821 81.4541C214.586 81.3369 214.286 81.2783 213.92 81.2783C213.42 81.2783 213.002 81.3937 212.669 81.6245C212.338 81.8518 212.173 82.1412 212.173 82.4928C212.173 82.8053 212.287 83.0521 212.514 83.2332C212.741 83.4143 213.097 83.5652 213.579 83.6859L214.794 83.9842C215.525 84.1618 216.071 84.4335 216.429 84.7992C216.788 85.1614 216.967 85.6284 216.967 86.2002C216.967 86.6689 216.832 87.0879 216.562 87.4573C216.296 87.8266 215.923 88.1178 215.444 88.3308C214.964 88.5439 214.407 88.6504 213.771 88.6504C212.937 88.6504 212.246 88.4693 211.699 88.1071C211.152 87.7449 210.806 87.2158 210.66 86.5198L211.854 86.2215C211.967 86.6618 212.182 86.9921 212.498 87.2122C212.818 87.4324 213.235 87.5425 213.75 87.5425C214.336 87.5425 214.801 87.4182 215.146 87.1696C215.494 86.9175 215.668 86.6156 215.668 86.2641C215.668 85.98 215.568 85.7421 215.369 85.5503C215.17 85.355 214.865 85.2094 214.453 85.1135L213.089 84.7939C212.34 84.6163 211.79 84.3411 211.438 83.9683C211.09 83.5918 210.916 83.1213 210.916 82.5567C210.916 82.095 211.046 81.6867 211.305 81.3315C211.568 80.9764 211.925 80.6977 212.376 80.4952C212.83 80.2928 213.345 80.1916 213.92 80.1916C214.73 80.1916 215.366 80.3692 215.827 80.7243C216.293 81.0794 216.623 81.5482 216.818 82.1305ZM222.29 88.6504C221.502 88.6504 220.822 88.4764 220.25 88.1284C219.682 87.7769 219.243 87.2868 218.934 86.6582C218.629 86.0261 218.476 85.2911 218.476 84.453C218.476 83.6149 218.629 82.8763 218.934 82.2371C219.243 81.5943 219.673 81.0936 220.223 80.735C220.777 80.3727 221.423 80.1916 222.162 80.1916C222.588 80.1916 223.009 80.2627 223.425 80.4047C223.84 80.5467 224.218 80.7776 224.559 81.0972C224.9 81.4132 225.172 81.8323 225.374 82.3543C225.577 82.8763 225.678 83.519 225.678 84.2825V84.8152H219.371V83.7286H224.399C224.399 83.2669 224.307 82.855 224.122 82.4928C223.941 82.1305 223.682 81.8447 223.345 81.6352C223.011 81.4256 222.617 81.3209 222.162 81.3209C221.661 81.3209 221.228 81.4452 220.862 81.6938C220.5 81.9388 220.221 82.2584 220.026 82.6526C219.831 83.0467 219.733 83.4693 219.733 83.9203V84.6448C219.733 85.2627 219.84 85.7864 220.053 86.2161C220.269 86.6423 220.569 86.9672 220.953 87.1909C221.336 87.4111 221.782 87.5212 222.29 87.5212C222.62 87.5212 222.919 87.475 223.185 87.3827C223.455 87.2868 223.687 87.1448 223.883 86.9565C224.078 86.7648 224.229 86.5269 224.335 86.2428L225.55 86.5837C225.422 86.9956 225.207 87.3578 224.905 87.6703C224.604 87.9793 224.231 88.2207 223.787 88.3948C223.343 88.5652 222.844 88.6504 222.29 88.6504ZM233.385 82.1305L232.256 82.4502C232.185 82.2619 232.08 82.0791 231.942 81.9015C231.807 81.7204 231.622 81.5712 231.388 81.4541C231.154 81.3369 230.854 81.2783 230.488 81.2783C229.987 81.2783 229.57 81.3937 229.236 81.6245C228.906 81.8518 228.741 82.1412 228.741 82.4928C228.741 82.8053 228.854 83.0521 229.081 83.2332C229.309 83.4143 229.664 83.5652 230.147 83.6859L231.361 83.9842C232.093 84.1618 232.638 84.4335 232.997 84.7992C233.355 85.1614 233.535 85.6284 233.535 86.2002C233.535 86.6689 233.4 87.0879 233.13 87.4573C232.863 87.8266 232.491 88.1178 232.011 88.3308C231.532 88.5439 230.974 88.6504 230.339 88.6504C229.504 88.6504 228.813 88.4693 228.267 88.1071C227.72 87.7449 227.373 87.2158 227.228 86.5198L228.421 86.2215C228.535 86.6618 228.749 86.9921 229.066 87.2122C229.385 87.4324 229.802 87.5425 230.317 87.5425C230.903 87.5425 231.368 87.4182 231.713 87.1696C232.061 86.9175 232.235 86.6156 232.235 86.2641C232.235 85.98 232.135 85.7421 231.937 85.5503C231.738 85.355 231.432 85.2094 231.02 85.1135L229.657 84.7939C228.907 84.6163 228.357 84.3411 228.006 83.9683C227.657 83.5918 227.483 83.1213 227.483 82.5567C227.483 82.095 227.613 81.6867 227.872 81.3315C228.135 80.9764 228.492 80.6977 228.943 80.4952C229.398 80.2928 229.912 80.1916 230.488 80.1916C231.297 80.1916 231.933 80.3692 232.395 80.7243C232.86 81.0794 233.19 81.5482 233.385 82.1305Z" fill="#101828"/>
</g>
<defs>
<filter id="filter0_d_170_631" x="0.75" y="0.110001" width="290.66" height="167.34" filterUnits="userSpaceOnUse" color-interpolation-filters="sRGB">
<feFlood flood-opacity="0" result="BackgroundImageFix"/>
<feColorMatrix in="SourceAlpha" type="matrix" values="0 0 0 0 0 0 0 0 0 0 0 0 0 0 0 0 0 0 127 0" result="hardAlpha"/>
<feOffset dy="18.36"/>
<feGaussianBlur stdDeviation="19.125"/>
<feComposite in2="hardAlpha" operator="out"/>
<feColorMatrix type="matrix" values="0 0 0 0 0 0 0 0 0 0 0 0 0 0 0 0 0 0 0.15 0"/>
<feBlend mode="normal" in2="BackgroundImageFix" result="effect1_dropShadow_170_631"/>
<feBlend mode="normal" in="SourceGraphic" in2="effect1_dropShadow_170_631" result="shape"/>
</filter>
<filter id="filter1_d_170_631" x="19.1099" y="21.0499" width="125.46" height="125.46" filterUnits="userSpaceOnUse" color-interpolation-filters="sRGB">
<feFlood flood-opacity="0" result="BackgroundImageFix"/>
<feColorMatrix in="SourceAlpha" type="matrix" values="0 0 0 0 0 0 0 0 0 0 0 0 0 0 0 0 0 0 127 0" result="hardAlpha"/>
<feOffset dy="18.36"/>
<feGaussianBlur stdDeviation="19.125"/>
<feComposite in2="hardAlpha" operator="out"/>
<feColorMatrix type="matrix" values="0 0 0 0 0.0509804 0 0 0 0 0.0470588 0 0 0 0 0.219608 0 0 0 0.15 0"/>
<feBlend mode="normal" in2="BackgroundImageFix" result="effect1_dropShadow_170_631"/>
<feBlend mode="normal" in="SourceGraphic" in2="effect1_dropShadow_170_631" result="shape"/>
</filter>
</defs>
</svg>
