<svg width="243" height="163" viewBox="0 0 243 163" fill="none" xmlns="http://www.w3.org/2000/svg">
<g filter="url(#filter0_d_170_646)">
<rect x="39" y="20" width="164.92" height="85.68" rx="18.36" fill="#F5F5F4" shape-rendering="crispEdges"/>
<rect x="39.3825" y="20.3825" width="164.155" height="84.915" rx="17.9775" stroke="#7F56D9" stroke-width="0.765" shape-rendering="crispEdges"/>
<g filter="url(#filter1_d_170_646)">
<rect x="57.3599" y="38.3599" width="48.96" height="48.96" rx="12.24" fill="#7F56D9"/>
<g clip-path="url(#clip0_170_646)">
<path d="M94.2714 68.2583H93.1877V67.3021H94.2714C95.0364 67.3021 95.6739 66.6646 95.6739 65.8996V59.2058C95.6739 57.9946 94.6539 56.9746 93.4427 56.9746H86.4302C85.2189 56.9746 84.1989 57.9946 84.1989 59.2058V65.8996C84.1989 66.6646 84.8364 67.3021 85.6014 67.3021H86.6852V68.2583H85.6014C84.2627 68.2583 83.2427 67.1746 83.2427 65.8996V59.2058C83.2427 57.4208 84.6452 56.0183 86.4302 56.0183H93.5064C95.2914 56.0183 96.6939 57.4208 96.6939 59.2058V65.8996C96.6939 67.2383 95.6102 68.2583 94.2714 68.2583ZM89.9364 54.9983C88.0239 54.9983 86.4302 53.4046 86.4302 51.4921C86.4302 49.5796 88.0239 47.9858 89.9364 47.9858C91.8489 47.9858 93.4427 49.5796 93.4427 51.4921C93.4427 53.4046 91.9127 54.9983 89.9364 54.9983ZM89.9364 49.0058C88.5339 49.0058 87.3864 50.1533 87.3864 51.5558C87.3864 52.9583 88.5339 54.1058 89.9364 54.1058C91.3389 54.1058 92.4864 52.9583 92.4864 51.5558C92.4864 50.1533 91.3389 49.0058 89.9364 49.0058Z" fill="#F5F5F4"/>
<path d="M91.594 77.6934C90.9565 77.6934 90.3827 77.3747 90.0002 76.9284C89.6177 77.3747 89.044 77.6934 88.4065 77.6934C87.259 77.6934 86.3027 76.7372 86.3027 75.5897V60.0347H87.259V75.5897C87.259 76.2272 87.769 76.7372 88.4065 76.7372C89.044 76.7372 89.4902 76.1634 89.4902 75.5897V67.8122H90.4465V75.5897C90.4465 76.2272 90.9565 76.7372 91.594 76.7372C92.2315 76.7372 92.7415 76.2272 92.7415 75.5897V60.0347H93.6977V75.5897C93.6977 76.7372 92.7415 77.6934 91.594 77.6934Z" fill="#F5F5F4"/>
<path d="M84.7086 71.0634H67.0498V51.0459H85.0273V52.0021H68.0061V70.1071H84.7086V71.0634Z" fill="#F5F5F4"/>
<path d="M81.5851 59.9707H70.6201V60.927H81.5851V59.9707Z" fill="#F5F5F4"/>
<path d="M81.5851 63.2222H70.6201V64.1784H81.5851V63.2222Z" fill="#F5F5F4"/>
<path d="M81.5851 66.5371H70.6201V67.4934H81.5851V66.5371Z" fill="#F5F5F4"/>
</g>
</g>
<path opacity="0.5" d="M119.306 42.6226V41.4508H127.488V42.6226H124.058V52.3599H122.737V42.6226H119.306ZM133.4 49.0147V44.178H134.657V52.3599H133.4V50.9749H133.314C133.123 51.3904 132.824 51.7437 132.419 52.0349C132.015 52.3226 131.503 52.4664 130.885 52.4664C130.374 52.4664 129.919 52.3545 129.522 52.1308C129.124 51.9035 128.812 51.5626 128.584 51.1081C128.357 50.65 128.243 50.0729 128.243 49.3769V44.178H129.5V49.2917C129.5 49.8883 129.667 50.3641 130.001 50.7192C130.339 51.0744 130.768 51.2519 131.29 51.2519C131.603 51.2519 131.921 51.172 132.244 51.0122C132.57 50.8524 132.844 50.6074 133.064 50.2771C133.288 49.9469 133.4 49.5261 133.4 49.0147ZM140.517 44.178V45.2434H136.277V44.178H140.517ZM137.513 42.2178H138.77V50.0161C138.77 50.3712 138.822 50.6376 138.925 50.8151C139.031 50.9891 139.166 51.1063 139.33 51.1667C139.496 51.2235 139.672 51.2519 139.857 51.2519C139.995 51.2519 140.109 51.2448 140.198 51.2306C140.287 51.2128 140.358 51.1986 140.411 51.188L140.667 52.3172C140.581 52.3492 140.462 52.3812 140.31 52.4131C140.157 52.4486 139.963 52.4664 139.729 52.4664C139.374 52.4664 139.026 52.39 138.685 52.2373C138.348 52.0847 138.067 51.8521 137.843 51.5396C137.623 51.2271 137.513 50.8329 137.513 50.357V42.2178ZM145.644 52.5303C144.906 52.5303 144.258 52.3545 143.7 52.003C143.146 51.6514 142.713 51.1596 142.4 50.5275C142.091 49.8954 141.937 49.1567 141.937 48.3116C141.937 47.4593 142.091 46.7153 142.4 46.0797C142.713 45.444 143.146 44.9504 143.7 44.5989C144.258 44.2473 144.906 44.0715 145.644 44.0715C146.383 44.0715 147.029 44.2473 147.583 44.5989C148.141 44.9504 148.574 45.444 148.883 46.0797C149.195 46.7153 149.352 47.4593 149.352 48.3116C149.352 49.1567 149.195 49.8954 148.883 50.5275C148.574 51.1596 148.141 51.6514 147.583 52.003C147.029 52.3545 146.383 52.5303 145.644 52.5303ZM145.644 51.4011C146.205 51.4011 146.667 51.2572 147.029 50.9696C147.392 50.682 147.66 50.3038 147.834 49.835C148.008 49.3663 148.095 48.8584 148.095 48.3116C148.095 47.7647 148.008 47.2551 147.834 46.7828C147.66 46.3105 147.392 45.9288 147.029 45.6376C146.667 45.3464 146.205 45.2008 145.644 45.2008C145.083 45.2008 144.622 45.3464 144.259 45.6376C143.897 45.9288 143.629 46.3105 143.455 46.7828C143.281 47.2551 143.194 47.7647 143.194 48.3116C143.194 48.8584 143.281 49.3663 143.455 49.835C143.629 50.3038 143.897 50.682 144.259 50.9696C144.622 51.2572 145.083 51.4011 145.644 51.4011ZM151.271 52.3599V44.178H152.485V45.4138H152.57C152.72 45.009 152.989 44.6805 153.38 44.4284C153.771 44.1763 154.211 44.0502 154.701 44.0502C154.793 44.0502 154.909 44.052 155.047 44.0555C155.186 44.0591 155.291 44.0644 155.362 44.0715V45.3499C155.319 45.3393 155.221 45.3233 155.069 45.302C154.919 45.2771 154.761 45.2647 154.595 45.2647C154.197 45.2647 153.842 45.3481 153.529 45.515C153.22 45.6784 152.975 45.9057 152.794 46.1969C152.617 46.4845 152.528 46.813 152.528 47.1823V52.3599H151.271ZM162.647 46.0104L161.518 46.33C161.447 46.1418 161.342 45.9589 161.204 45.7814C161.069 45.6003 160.884 45.4511 160.65 45.3339C160.415 45.2168 160.115 45.1582 159.749 45.1582C159.249 45.1582 158.831 45.2736 158.498 45.5044C158.167 45.7317 158.002 46.0211 158.002 46.3726C158.002 46.6851 158.116 46.932 158.343 47.1131C158.57 47.2942 158.926 47.4451 159.409 47.5658L160.623 47.8641C161.355 48.0417 161.9 48.3133 162.258 48.6791C162.617 49.0413 162.796 49.5083 162.796 50.08C162.796 50.5488 162.661 50.9678 162.392 51.3371C162.125 51.7065 161.752 51.9976 161.273 52.2107C160.794 52.4238 160.236 52.5303 159.6 52.5303C158.766 52.5303 158.075 52.3492 157.528 51.987C156.981 51.6248 156.635 51.0957 156.49 50.3996L157.683 50.1013C157.796 50.5417 158.011 50.8719 158.327 51.0921C158.647 51.3123 159.064 51.4224 159.579 51.4224C160.165 51.4224 160.63 51.2981 160.975 51.0495C161.323 50.7974 161.497 50.4955 161.497 50.144C161.497 49.8599 161.397 49.6219 161.198 49.4302C160.999 49.2349 160.694 49.0893 160.282 48.9934L158.919 48.6738C158.169 48.4962 157.619 48.221 157.267 47.8481C156.919 47.4717 156.745 47.0012 156.745 46.4366C156.745 45.9749 156.875 45.5665 157.134 45.2114C157.397 44.8563 157.754 44.5775 158.205 44.3751C158.659 44.1727 159.174 44.0715 159.749 44.0715C160.559 44.0715 161.195 44.2491 161.656 44.6042C162.122 44.9593 162.452 45.428 162.647 46.0104Z" fill="#101828"/>
<path d="M120.502 80.3599V77.59L126.973 71.5974C127.524 71.0648 127.986 70.5854 128.358 70.1592C128.737 69.7331 129.024 69.3158 129.22 68.9074C129.415 68.4931 129.513 68.0463 129.513 67.5669C129.513 67.0342 129.391 66.5755 129.149 66.1908C128.906 65.8002 128.574 65.5013 128.154 65.2942C127.734 65.0811 127.258 64.9746 126.725 64.9746C126.169 64.9746 125.683 65.087 125.269 65.3119C124.855 65.5368 124.535 65.8594 124.31 66.2796C124.085 66.6998 123.973 67.1999 123.973 67.78H120.324C120.324 66.5903 120.593 65.5575 121.132 64.6816C121.67 63.8056 122.425 63.128 123.396 62.6486C124.366 62.1692 125.485 61.9295 126.752 61.9295C128.054 61.9295 129.187 62.1603 130.152 62.6219C131.122 63.0777 131.877 63.711 132.416 64.5218C132.954 65.3326 133.224 66.2619 133.224 67.3094C133.224 67.996 133.087 68.6737 132.815 69.3425C132.549 70.0113 132.072 70.754 131.386 71.5708C130.699 72.3816 129.732 73.3552 128.483 74.4916L125.828 77.0928V77.2171H133.463V80.3599H120.502ZM142.889 80.6084C141.635 80.6084 140.516 80.3776 139.533 79.916C138.557 79.4543 137.782 78.8181 137.207 78.0072C136.633 77.1964 136.334 76.2672 136.311 75.2196H140.039C140.081 75.9239 140.377 76.495 140.927 76.933C141.478 77.371 142.132 77.59 142.889 77.59C143.493 77.59 144.026 77.4568 144.487 77.1905C144.955 76.9182 145.319 76.5424 145.579 76.063C145.846 75.5777 145.979 75.0213 145.979 74.394C145.979 73.7547 145.843 73.1925 145.57 72.7072C145.304 72.2218 144.934 71.8431 144.461 71.5708C143.987 71.2985 143.446 71.1595 142.836 71.1535C142.303 71.1535 141.785 71.263 141.282 71.482C140.785 71.701 140.398 71.9999 140.119 72.3787L136.701 71.7661L137.563 62.178H148.678V65.3208H140.732L140.261 69.8751H140.368C140.688 69.4253 141.17 69.0525 141.815 68.7565C142.46 68.4606 143.182 68.3126 143.981 68.3126C145.076 68.3126 146.053 68.5701 146.911 69.085C147.769 69.5999 148.447 70.3072 148.944 71.2068C149.441 72.1005 149.687 73.1303 149.681 74.2963C149.687 75.5214 149.403 76.6105 148.829 77.5633C148.26 78.5103 147.464 79.2561 146.44 79.8006C145.422 80.3391 144.239 80.6084 142.889 80.6084ZM159.491 80.7594C157.964 80.7534 156.65 80.3776 155.549 79.6319C154.454 78.8861 153.611 77.806 153.019 76.3915C152.433 74.9769 152.143 73.2753 152.149 71.2867C152.149 69.304 152.442 67.6142 153.028 66.2175C153.62 64.8207 154.463 63.7583 155.558 63.0303C156.659 62.2964 157.97 61.9295 159.491 61.9295C161.012 61.9295 162.32 62.2964 163.415 63.0303C164.516 63.7642 165.362 64.8296 165.954 66.2263C166.546 67.6172 166.839 69.304 166.833 71.2867C166.833 73.2813 166.537 74.9858 165.945 76.4003C165.359 77.8149 164.519 78.895 163.424 79.6408C162.329 80.3865 161.018 80.7594 159.491 80.7594ZM159.491 77.5722C160.532 77.5722 161.364 77.0484 161.985 76.0008C162.607 74.9533 162.915 73.3819 162.909 71.2867C162.909 69.9077 162.767 68.7595 162.483 67.8421C162.204 66.9247 161.808 66.2352 161.293 65.7736C160.784 65.3119 160.183 65.0811 159.491 65.0811C158.455 65.0811 157.626 65.599 157.005 66.6347C156.384 67.6705 156.07 69.2211 156.064 71.2867C156.064 72.6835 156.203 73.8494 156.481 74.7846C156.765 75.7138 157.165 76.4122 157.68 76.8797C158.195 77.3414 158.798 77.5722 159.491 77.5722ZM175.007 77.59V65.019H178.185V77.59H175.007ZM170.311 72.8936V69.7153H182.882V72.8936H170.311Z" fill="#101828"/>
</g>
<defs>
<filter id="filter0_d_170_646" x="0.75" y="0.110001" width="241.42" height="162.18" filterUnits="userSpaceOnUse" color-interpolation-filters="sRGB">
<feFlood flood-opacity="0" result="BackgroundImageFix"/>
<feColorMatrix in="SourceAlpha" type="matrix" values="0 0 0 0 0 0 0 0 0 0 0 0 0 0 0 0 0 0 127 0" result="hardAlpha"/>
<feOffset dy="18.36"/>
<feGaussianBlur stdDeviation="19.125"/>
<feComposite in2="hardAlpha" operator="out"/>
<feColorMatrix type="matrix" values="0 0 0 0 0 0 0 0 0 0 0 0 0 0 0 0 0 0 0.15 0"/>
<feBlend mode="normal" in2="BackgroundImageFix" result="effect1_dropShadow_170_646"/>
<feBlend mode="normal" in="SourceGraphic" in2="effect1_dropShadow_170_646" result="shape"/>
</filter>
<filter id="filter1_d_170_646" x="19.1099" y="18.4699" width="125.46" height="125.46" filterUnits="userSpaceOnUse" color-interpolation-filters="sRGB">
<feFlood flood-opacity="0" result="BackgroundImageFix"/>
<feColorMatrix in="SourceAlpha" type="matrix" values="0 0 0 0 0 0 0 0 0 0 0 0 0 0 0 0 0 0 127 0" result="hardAlpha"/>
<feOffset dy="18.36"/>
<feGaussianBlur stdDeviation="19.125"/>
<feComposite in2="hardAlpha" operator="out"/>
<feColorMatrix type="matrix" values="0 0 0 0 0.0509804 0 0 0 0 0.0470588 0 0 0 0 0.219608 0 0 0 0.15 0"/>
<feBlend mode="normal" in2="BackgroundImageFix" result="effect1_dropShadow_170_646"/>
<feBlend mode="normal" in="SourceGraphic" in2="effect1_dropShadow_170_646" result="shape"/>
</filter>
<clipPath id="clip0_170_646">
<rect width="30.6" height="30.6" fill="white" transform="translate(66.54 47.5396)"/>
</clipPath>
</defs>
</svg>
