<svg width="222" height="266" viewBox="0 0 222 266" fill="none" xmlns="http://www.w3.org/2000/svg">
<g filter="url(#filter0_d_170_621)">
<rect x="39" y="20" width="144.72" height="189.2" rx="18.36" fill="#F5F5F4" shape-rendering="crispEdges"/>
<rect x="39.3825" y="20.3825" width="143.955" height="188.435" rx="17.9775" stroke="#7F56D9" stroke-width="0.765" shape-rendering="crispEdges"/>
<path d="M111.36 42.3599C116.087 42.3599 120.769 43.291 125.136 45.1002C129.504 46.9094 133.473 49.5611 136.816 52.904C140.159 56.2469 142.81 60.2155 144.62 64.5833C146.429 68.951 147.36 73.6323 147.36 78.3599C147.36 83.0875 146.429 87.7688 144.62 92.1365C142.81 96.5042 140.159 100.473 136.816 103.816C133.473 107.159 129.504 109.81 125.136 111.62C120.769 113.429 116.087 114.36 111.36 114.36C106.632 114.36 101.951 113.429 97.5832 111.62C93.2155 109.81 89.2469 107.159 85.904 103.816C82.5611 100.473 79.9094 96.5042 78.1002 92.1365C76.291 87.7687 75.3599 83.0874 75.3599 78.3598C75.3599 73.6323 76.291 68.951 78.1002 64.5832C79.9094 60.2155 82.5611 56.2469 85.904 52.904C89.2469 49.5611 93.2156 46.9094 97.5833 45.1002C101.951 43.291 106.632 42.3599 111.36 42.3599L111.36 42.3599Z" stroke="#EAECF0" stroke-width="8" stroke-linecap="round" stroke-linejoin="round"/>
<path d="M111.36 42.3599C118.962 42.3599 126.37 44.7666 132.52 49.2353C138.671 53.7039 143.249 60.0049 145.598 67.2353C147.947 74.4656 147.947 82.2541 145.598 89.4845C143.249 96.7148 138.671 103.016 132.52 107.484" stroke="#7F56D9" stroke-width="8" stroke-linecap="round" stroke-linejoin="round"/>
<path d="M94.8526 154.849C93.5979 154.849 92.4793 154.618 91.4968 154.156C90.5202 153.695 89.7449 153.058 89.1708 152.247C88.5967 151.437 88.2978 150.507 88.2741 149.46H92.0028C92.0443 150.164 92.3402 150.735 92.8906 151.173C93.4411 151.611 94.0951 151.83 94.8526 151.83C95.4563 151.83 95.989 151.697 96.4506 151.431C96.9182 151.158 97.2822 150.783 97.5426 150.303C97.8089 149.818 97.9421 149.262 97.9421 148.634C97.9421 147.995 97.806 147.433 97.5337 146.947C97.2674 146.462 96.8975 146.083 96.424 145.811C95.9505 145.539 95.409 145.4 94.7994 145.394C94.2667 145.394 93.7488 145.503 93.2457 145.722C92.7486 145.941 92.3609 146.24 92.0827 146.619L88.6648 146.006L89.5259 136.418H100.641V139.561H92.6953L92.2248 144.115H92.3313C92.6509 143.666 93.1333 143.293 93.7784 142.997C94.4235 142.701 95.1456 142.553 95.9446 142.553C97.0395 142.553 98.0161 142.81 98.8743 143.325C99.7325 143.84 100.41 144.547 100.907 145.447C101.404 146.341 101.65 147.371 101.644 148.537C101.65 149.762 101.366 150.851 100.792 151.804C100.224 152.751 99.4277 153.496 98.4038 154.041C97.3858 154.579 96.2021 154.849 94.8526 154.849ZM104.432 154.6V136.418H108.276V144.435H108.516L115.059 136.418H119.666L112.919 144.559L119.746 154.6H115.147L110.167 147.125L108.276 149.433V154.6H104.432ZM125.896 151.83V139.259H129.074V151.83H125.896ZM121.2 147.134V143.956H133.771V147.134H121.2Z" fill="#101828"/>
<path opacity="0.5" d="M68.0817 181.385C68.0817 182.536 67.874 183.53 67.4585 184.368C67.043 185.206 66.4731 185.853 65.7486 186.307C65.0242 186.762 64.1968 186.989 63.2664 186.989C62.336 186.989 61.5086 186.762 60.7841 186.307C60.0597 185.853 59.4897 185.206 59.0743 184.368C58.6588 183.53 58.451 182.536 58.451 181.385C58.451 180.235 58.6588 179.24 59.0743 178.402C59.4897 177.564 60.0597 176.918 60.7841 176.463C61.5086 176.009 62.336 175.782 63.2664 175.782C64.1968 175.782 65.0242 176.009 65.7486 176.463C66.4731 176.918 67.043 177.564 67.4585 178.402C67.874 179.24 68.0817 180.235 68.0817 181.385ZM66.8033 181.385C66.8033 180.441 66.6453 179.643 66.3292 178.994C66.0167 178.344 65.5924 177.852 65.0562 177.518C64.5235 177.184 63.9269 177.017 63.2664 177.017C62.6059 177.017 62.0075 177.184 61.4713 177.518C60.9386 177.852 60.5142 178.344 60.1982 178.994C59.8857 179.643 59.7294 180.441 59.7294 181.385C59.7294 182.33 59.8857 183.127 60.1982 183.777C60.5142 184.427 60.9386 184.919 61.4713 185.252C62.0075 185.586 62.6059 185.753 63.2664 185.753C63.9269 185.753 64.5235 185.586 65.0562 185.252C65.5924 184.919 66.0167 184.427 66.3292 183.777C66.6453 183.127 66.8033 182.33 66.8033 181.385ZM71.3896 181.918V186.84H70.1325V178.658H71.347V179.936H71.4535C71.6453 179.521 71.9365 179.187 72.3271 178.935C72.7177 178.679 73.222 178.551 73.8399 178.551C74.3939 178.551 74.8786 178.665 75.2941 178.892C75.7096 179.116 76.0327 179.457 76.2635 179.915C76.4944 180.37 76.6098 180.945 76.6098 181.641V186.84H75.3527V181.726C75.3527 181.083 75.1858 180.583 74.852 180.224C74.5182 179.862 74.0601 179.681 73.4777 179.681C73.0764 179.681 72.7177 179.768 72.4017 179.942C72.0892 180.116 71.8424 180.37 71.6613 180.703C71.4802 181.037 71.3896 181.442 71.3896 181.918ZM80.164 175.931V186.84H78.9069V175.931H80.164ZM82.4665 186.84V178.658H83.7236V186.84H82.4665ZM83.1057 177.294C82.8607 177.294 82.6494 177.211 82.4718 177.044C82.2978 176.877 82.2108 176.676 82.2108 176.442C82.2108 176.208 82.2978 176.007 82.4718 175.84C82.6494 175.673 82.8607 175.59 83.1057 175.59C83.3507 175.59 83.5602 175.673 83.7342 175.84C83.9118 176.007 84.0006 176.208 84.0006 176.442C84.0006 176.676 83.9118 176.877 83.7342 177.044C83.5602 177.211 83.3507 177.294 83.1057 177.294ZM87.2832 181.918V186.84H86.0261V178.658H87.2405V179.936H87.3471C87.5388 179.521 87.83 179.187 88.2207 178.935C88.6113 178.679 89.1155 178.551 89.7334 178.551C90.2874 178.551 90.7722 178.665 91.1876 178.892C91.6031 179.116 91.9263 179.457 92.1571 179.915C92.3879 180.37 92.5033 180.945 92.5033 181.641V186.84H91.2462V181.726C91.2462 181.083 91.0793 180.583 90.7455 180.224C90.4117 179.862 89.9536 179.681 89.3712 179.681C88.9699 179.681 88.6113 179.768 88.2952 179.942C87.9827 180.116 87.7359 180.37 87.5548 180.703C87.3737 181.037 87.2832 181.442 87.2832 181.918ZM98.2309 187.01C97.4425 187.01 96.7625 186.836 96.1907 186.488C95.6226 186.137 95.184 185.647 94.875 185.018C94.5696 184.386 94.4169 183.651 94.4169 182.813C94.4169 181.975 94.5696 181.236 94.875 180.597C95.184 179.954 95.6137 179.453 96.1641 179.095C96.7181 178.733 97.3644 178.551 98.103 178.551C98.5292 178.551 98.95 178.623 99.3655 178.765C99.7809 178.907 100.159 179.137 100.5 179.457C100.841 179.773 101.113 180.192 101.315 180.714C101.517 181.236 101.619 181.879 101.619 182.642V183.175H95.3118V182.088H100.34C100.34 181.627 100.248 181.215 100.063 180.853C99.8821 180.49 99.6229 180.205 99.2856 179.995C98.9517 179.786 98.5576 179.681 98.103 179.681C97.6023 179.681 97.1691 179.805 96.8033 180.054C96.4411 180.299 96.1623 180.618 95.967 181.012C95.7717 181.407 95.6741 181.829 95.6741 182.28V183.005C95.6741 183.623 95.7806 184.146 95.9937 184.576C96.2103 185.002 96.5103 185.327 96.8939 185.551C97.2774 185.771 97.7231 185.881 98.2309 185.881C98.5611 185.881 98.8594 185.835 99.1258 185.743C99.3956 185.647 99.6282 185.505 99.8236 185.316C100.019 185.125 100.17 184.887 100.276 184.603L101.491 184.944C101.363 185.355 101.148 185.718 100.846 186.03C100.544 186.339 100.172 186.581 99.7277 186.755C99.2838 186.925 98.7848 187.01 98.2309 187.01ZM116.699 179.34H115.378C115.299 178.96 115.163 178.626 114.967 178.338C114.776 178.051 114.541 177.809 114.264 177.614C113.991 177.415 113.687 177.266 113.353 177.167C113.02 177.067 112.672 177.017 112.309 177.017C111.649 177.017 111.05 177.184 110.514 177.518C109.982 177.852 109.557 178.344 109.241 178.994C108.929 179.643 108.772 180.441 108.772 181.385C108.772 182.33 108.929 183.127 109.241 183.777C109.557 184.427 109.982 184.919 110.514 185.252C111.05 185.586 111.649 185.753 112.309 185.753C112.672 185.753 113.02 185.703 113.353 185.604C113.687 185.505 113.991 185.357 114.264 185.162C114.541 184.963 114.776 184.72 114.967 184.432C115.163 184.141 115.299 183.807 115.378 183.431H116.699C116.599 183.988 116.418 184.487 116.155 184.928C115.892 185.368 115.566 185.743 115.175 186.051C114.784 186.357 114.346 186.589 113.859 186.749C113.376 186.909 112.86 186.989 112.309 186.989C111.379 186.989 110.552 186.762 109.827 186.307C109.103 185.853 108.533 185.206 108.117 184.368C107.702 183.53 107.494 182.536 107.494 181.385C107.494 180.235 107.702 179.24 108.117 178.402C108.533 177.564 109.103 176.918 109.827 176.463C110.552 176.009 111.379 175.782 112.309 175.782C112.86 175.782 113.376 175.862 113.859 176.021C114.346 176.181 114.784 176.415 115.175 176.724C115.566 177.03 115.892 177.403 116.155 177.843C116.418 178.28 116.599 178.779 116.699 179.34ZM121.987 187.01C121.248 187.01 120.6 186.835 120.042 186.483C119.488 186.131 119.055 185.64 118.743 185.007C118.434 184.375 118.279 183.637 118.279 182.792C118.279 181.939 118.434 181.195 118.743 180.56C119.055 179.924 119.488 179.43 120.042 179.079C120.6 178.727 121.248 178.551 121.987 178.551C122.725 178.551 123.372 178.727 123.926 179.079C124.483 179.43 124.916 179.924 125.225 180.56C125.538 181.195 125.694 181.939 125.694 182.792C125.694 183.637 125.538 184.375 125.225 185.007C124.916 185.64 124.483 186.131 123.926 186.483C123.372 186.835 122.725 187.01 121.987 187.01ZM121.987 185.881C122.548 185.881 123.009 185.737 123.372 185.45C123.734 185.162 124.002 184.784 124.176 184.315C124.35 183.846 124.437 183.338 124.437 182.792C124.437 182.245 124.35 181.735 124.176 181.263C124.002 180.79 123.734 180.409 123.372 180.118C123.009 179.826 122.548 179.681 121.987 179.681C121.426 179.681 120.964 179.826 120.602 180.118C120.239 180.409 119.971 180.79 119.797 181.263C119.623 181.735 119.536 182.245 119.536 182.792C119.536 183.338 119.623 183.846 119.797 184.315C119.971 184.784 120.239 185.162 120.602 185.45C120.964 185.737 121.426 185.881 121.987 185.881ZM132.769 183.495V178.658H134.026V186.84H132.769V185.455H132.684C132.492 185.87 132.194 186.224 131.789 186.515C131.384 186.803 130.873 186.946 130.255 186.946C129.744 186.946 129.289 186.835 128.891 186.611C128.494 186.384 128.181 186.043 127.954 185.588C127.727 185.13 127.613 184.553 127.613 183.857V178.658H128.87V183.772C128.87 184.368 129.037 184.844 129.371 185.199C129.708 185.554 130.138 185.732 130.66 185.732C130.972 185.732 131.29 185.652 131.613 185.492C131.94 185.332 132.213 185.087 132.434 184.757C132.657 184.427 132.769 184.006 132.769 183.495ZM136.329 186.84V178.658H137.543V179.894H137.629C137.778 179.489 138.048 179.161 138.438 178.908C138.829 178.656 139.269 178.53 139.759 178.53C139.852 178.53 139.967 178.532 140.105 178.536C140.244 178.539 140.349 178.544 140.42 178.551V179.83C140.377 179.819 140.279 179.803 140.127 179.782C139.978 179.757 139.82 179.745 139.653 179.745C139.255 179.745 138.9 179.828 138.587 179.995C138.278 180.158 138.033 180.386 137.852 180.677C137.675 180.964 137.586 181.293 137.586 181.662V186.84H136.329ZM147.705 180.49L146.576 180.81C146.505 180.622 146.4 180.439 146.262 180.261C146.127 180.08 145.942 179.931 145.708 179.814C145.473 179.697 145.173 179.638 144.808 179.638C144.307 179.638 143.89 179.754 143.556 179.984C143.226 180.212 143.06 180.501 143.06 180.853C143.06 181.165 143.174 181.412 143.401 181.593C143.629 181.774 143.984 181.925 144.467 182.046L145.681 182.344C146.413 182.522 146.958 182.793 147.316 183.159C147.675 183.521 147.854 183.988 147.854 184.56C147.854 185.029 147.72 185.448 147.45 185.817C147.183 186.186 146.81 186.478 146.331 186.691C145.852 186.904 145.294 187.01 144.658 187.01C143.824 187.01 143.133 186.829 142.586 186.467C142.039 186.105 141.693 185.576 141.548 184.88L142.741 184.581C142.854 185.022 143.069 185.352 143.385 185.572C143.705 185.792 144.122 185.902 144.637 185.902C145.223 185.902 145.688 185.778 146.033 185.529C146.381 185.277 146.555 184.975 146.555 184.624C146.555 184.34 146.455 184.102 146.256 183.91C146.058 183.715 145.752 183.569 145.34 183.473L143.977 183.154C143.227 182.976 142.677 182.701 142.325 182.328C141.977 181.952 141.803 181.481 141.803 180.917C141.803 180.455 141.933 180.047 142.192 179.691C142.455 179.336 142.812 179.058 143.263 178.855C143.717 178.653 144.232 178.551 144.808 178.551C145.617 178.551 146.253 178.729 146.715 179.084C147.18 179.439 147.51 179.908 147.705 180.49ZM153.177 187.01C152.389 187.01 151.709 186.836 151.137 186.488C150.569 186.137 150.13 185.647 149.821 185.018C149.516 184.386 149.363 183.651 149.363 182.813C149.363 181.975 149.516 181.236 149.821 180.597C150.13 179.954 150.56 179.453 151.11 179.095C151.664 178.733 152.311 178.551 153.049 178.551C153.475 178.551 153.896 178.623 154.312 178.765C154.727 178.907 155.105 179.137 155.446 179.457C155.787 179.773 156.059 180.192 156.261 180.714C156.464 181.236 156.565 181.879 156.565 182.642V183.175H150.258V182.088H155.287C155.287 181.627 155.194 181.215 155.01 180.853C154.828 180.49 154.569 180.205 154.232 179.995C153.898 179.786 153.504 179.681 153.049 179.681C152.549 179.681 152.115 179.805 151.75 180.054C151.387 180.299 151.109 180.618 150.913 181.012C150.718 181.407 150.62 181.829 150.62 182.28V183.005C150.62 183.623 150.727 184.146 150.94 184.576C151.157 185.002 151.457 185.327 151.84 185.551C152.224 185.771 152.669 185.881 153.177 185.881C153.507 185.881 153.806 185.835 154.072 185.743C154.342 185.647 154.575 185.505 154.77 185.316C154.965 185.125 155.116 184.887 155.223 184.603L156.437 184.944C156.309 185.355 156.094 185.718 155.793 186.03C155.491 186.339 155.118 186.581 154.674 186.755C154.23 186.925 153.731 187.01 153.177 187.01ZM164.273 180.49L163.143 180.81C163.072 180.622 162.968 180.439 162.829 180.261C162.694 180.08 162.51 179.931 162.275 179.814C162.041 179.697 161.741 179.638 161.375 179.638C160.874 179.638 160.457 179.754 160.123 179.984C159.793 180.212 159.628 180.501 159.628 180.853C159.628 181.165 159.741 181.412 159.969 181.593C160.196 181.774 160.551 181.925 161.034 182.046L162.249 182.344C162.98 182.522 163.525 182.793 163.884 183.159C164.242 183.521 164.422 183.988 164.422 184.56C164.422 185.029 164.287 185.448 164.017 185.817C163.751 186.186 163.378 186.478 162.898 186.691C162.419 186.904 161.861 187.01 161.226 187.01C160.391 187.01 159.701 186.829 159.154 186.467C158.607 186.105 158.261 185.576 158.115 184.88L159.308 184.581C159.422 185.022 159.637 185.352 159.953 185.572C160.272 185.792 160.69 185.902 161.205 185.902C161.79 185.902 162.256 185.778 162.6 185.529C162.948 185.277 163.122 184.975 163.122 184.624C163.122 184.34 163.023 184.102 162.824 183.91C162.625 183.715 162.32 183.569 161.908 183.473L160.544 183.154C159.795 182.976 159.244 182.701 158.893 182.328C158.545 181.952 158.371 181.481 158.371 180.917C158.371 180.455 158.5 180.047 158.76 179.691C159.022 179.336 159.379 179.058 159.83 178.855C160.285 178.653 160.8 178.551 161.375 178.551C162.185 178.551 162.82 178.729 163.282 179.084C163.747 179.439 164.077 179.908 164.273 180.49Z" fill="#101828"/>
</g>
<defs>
<filter id="filter0_d_170_621" x="0.75" y="0.110001" width="221.22" height="265.7" filterUnits="userSpaceOnUse" color-interpolation-filters="sRGB">
<feFlood flood-opacity="0" result="BackgroundImageFix"/>
<feColorMatrix in="SourceAlpha" type="matrix" values="0 0 0 0 0 0 0 0 0 0 0 0 0 0 0 0 0 0 127 0" result="hardAlpha"/>
<feOffset dy="18.36"/>
<feGaussianBlur stdDeviation="19.125"/>
<feComposite in2="hardAlpha" operator="out"/>
<feColorMatrix type="matrix" values="0 0 0 0 0 0 0 0 0 0 0 0 0 0 0 0 0 0 0.15 0"/>
<feBlend mode="normal" in2="BackgroundImageFix" result="effect1_dropShadow_170_621"/>
<feBlend mode="normal" in="SourceGraphic" in2="effect1_dropShadow_170_621" result="shape"/>
</filter>
</defs>
</svg>
