<svg width="103" height="43" viewBox="0 0 103 43" fill="none" xmlns="http://www.w3.org/2000/svg">
<rect x="0.257568" y="0.395996" width="102.713" height="41.7031" rx="15.4456" fill="url(#paint0_linear_480_138)"/>
<path d="M38.5708 27.2476L38.0278 25.1811H34.4455L33.8874 27.2476H30.6143L34.2117 16.1762H38.1862L41.8289 27.2476H38.5708ZM37.4094 22.7376L36.9343 20.9275C36.884 20.7315 36.8111 20.4524 36.7156 20.0904C36.62 19.7234 36.5245 19.3463 36.429 18.9591C36.3385 18.567 36.2681 18.2452 36.2178 17.9938C36.1726 18.2452 36.1072 18.5569 36.0217 18.929C35.9413 19.296 35.8558 19.6605 35.7653 20.0225C35.6798 20.3845 35.6044 20.6862 35.539 20.9275L35.0639 22.7376H37.4094ZM48.0735 20.9125H46.2559V27.2476H43.3071V20.9125H42.1758V19.4644L43.3674 18.7404V18.5971C43.3674 17.858 43.4655 17.2572 43.6616 16.7946C43.8576 16.327 44.1694 15.9826 44.5967 15.7614C45.0241 15.5402 45.5822 15.4296 46.271 15.4296C46.7135 15.4296 47.1132 15.4648 47.4702 15.5352C47.8322 15.6055 48.2093 15.7061 48.6014 15.8368L47.9679 17.7449C47.8221 17.7047 47.6587 17.6695 47.4777 17.6393C47.3017 17.6092 47.1107 17.5941 46.9045 17.5941C46.6783 17.5941 46.5124 17.6645 46.4068 17.8052C46.3062 17.941 46.2559 18.1647 46.2559 18.4765V18.7027H48.0735V20.9125ZM53.4206 25.068C53.6871 25.068 53.931 25.0403 54.1522 24.985C54.3734 24.9297 54.6047 24.8593 54.846 24.7739V26.9233C54.5242 27.064 54.1824 27.1772 53.8203 27.2626C53.4634 27.3531 53.0058 27.3984 52.4477 27.3984C51.8947 27.3984 51.407 27.3129 50.9846 27.142C50.5623 26.966 50.233 26.6643 49.9967 26.237C49.7654 25.8046 49.6497 25.2037 49.6497 24.4345V20.9125H48.6165V19.7133L49.9288 18.7857L50.6905 16.9907H52.6212V18.7027H54.7178V20.9125H52.6212V24.2384C52.6212 24.5149 52.6916 24.7236 52.8324 24.8644C52.9732 25.0001 53.1692 25.068 53.4206 25.068ZM60.1856 18.5519C61.0152 18.5519 61.7317 18.6977 62.335 18.9893C62.9384 19.2759 63.4034 19.7083 63.7303 20.2865C64.0571 20.8647 64.2205 21.5887 64.2205 22.4585V23.7708H58.9488C58.9739 24.2183 59.1398 24.5853 59.4465 24.8719C59.7582 25.1585 60.2158 25.3018 60.8191 25.3018C61.3521 25.3018 61.8398 25.249 62.2822 25.1434C62.7297 25.0378 63.1898 24.8744 63.6624 24.6532V26.7724C63.2501 26.9886 62.8001 27.147 62.3124 27.2476C61.8247 27.3481 61.2088 27.3984 60.4647 27.3984C59.6049 27.3984 58.8356 27.245 58.1569 26.9383C57.4781 26.6316 56.9426 26.1565 56.5505 25.5129C56.1633 24.8694 55.9698 24.0423 55.9698 23.0317C55.9698 22.006 56.1457 21.1638 56.4977 20.5052C56.8496 19.8415 57.3424 19.3513 57.9759 19.0345C58.6094 18.7128 59.346 18.5519 60.1856 18.5519ZM60.2912 20.558C59.9443 20.558 59.6527 20.6686 59.4164 20.8898C59.1851 21.106 59.0493 21.4479 59.0091 21.9155H61.5431C61.5381 21.6641 61.4878 21.4354 61.3923 21.2292C61.2968 21.0231 61.156 20.8597 60.97 20.739C60.789 20.6183 60.5627 20.558 60.2912 20.558ZM71.0458 18.5519C71.2067 18.5519 71.3751 18.5644 71.5511 18.5896C71.7271 18.6097 71.8578 18.6273 71.9433 18.6424L71.6793 21.4253C71.5838 21.4002 71.4606 21.38 71.3098 21.365C71.1589 21.3449 70.9478 21.3348 70.6763 21.3348C70.4902 21.3348 70.2916 21.3524 70.0804 21.3876C69.8693 21.4228 69.6682 21.4982 69.4771 21.6138C69.2911 21.7245 69.1377 21.8954 69.0171 22.1267C68.8964 22.3529 68.8361 22.6596 68.8361 23.0468V27.2476H65.8872V18.7027H68.0819L68.5419 20.0678H68.6852C68.8411 19.7862 69.0397 19.5323 69.281 19.3061C69.5274 19.0748 69.8014 18.8913 70.1031 18.7555C70.4098 18.6198 70.724 18.5519 71.0458 18.5519Z" fill="white"/>
<defs>
<linearGradient id="paint0_linear_480_138" x1="0.257568" y1="21.2475" x2="102.971" y2="21.2475" gradientUnits="userSpaceOnUse">
<stop stop-color="#015BE4"/>
<stop stop-color="#015BE4"/>
<stop offset="1" stop-color="#4AB11F"/>
</linearGradient>
</defs>
</svg>
