<svg width="104" height="43" viewBox="0 0 104 43" fill="none" xmlns="http://www.w3.org/2000/svg">
<rect x="0.446777" y="0.812988" width="102.713" height="41.7031" rx="15.4456" fill="url(#paint0_linear_480_140)"/>
<path d="M26.4948 16.6385H30.3411C31.935 16.6385 33.0713 16.8748 33.75 17.3474C34.4288 17.82 34.7682 18.4988 34.7682 19.3837C34.7682 19.8663 34.6802 20.2761 34.5042 20.613C34.3333 20.9498 34.1145 21.2163 33.8481 21.4124C33.5866 21.6085 33.3176 21.7417 33.0411 21.8121V21.8875C33.3428 21.963 33.6419 22.0887 33.9386 22.2646C34.2402 22.4356 34.4891 22.6945 34.6852 23.0414C34.8863 23.3833 34.9869 23.8484 34.9869 24.4367C34.9869 25.1054 34.8159 25.6811 34.474 26.1637C34.1372 26.6464 33.6545 27.0185 33.026 27.2799C32.3975 27.5363 31.6509 27.6646 30.7861 27.6646H26.4948V16.6385ZM29.4738 20.8694H30.3713C30.864 20.8694 31.211 20.7688 31.4121 20.5677C31.6132 20.3616 31.7137 20.1127 31.7137 19.8211C31.7137 19.5194 31.5981 19.2906 31.3668 19.1348C31.1406 18.9739 30.7886 18.8934 30.311 18.8934H29.4738V20.8694ZM29.4738 23.049V25.3643H30.5221C31.04 25.3643 31.402 25.2537 31.6082 25.0325C31.8143 24.8062 31.9174 24.5247 31.9174 24.1878C31.9174 23.9917 31.8721 23.8082 31.7816 23.6372C31.6961 23.4613 31.5478 23.3205 31.3367 23.2149C31.1255 23.1043 30.8339 23.049 30.4618 23.049H29.4738ZM40.5753 18.9689C41.4049 18.9689 42.1214 19.1147 42.7248 19.4063C43.3281 19.6929 43.7932 20.1253 44.12 20.7035C44.4468 21.2817 44.6102 22.0057 44.6102 22.8755V24.1878H39.3385C39.3636 24.6353 39.5296 25.0023 39.8363 25.2889C40.148 25.5755 40.6055 25.7188 41.2089 25.7188C41.7418 25.7188 42.2295 25.666 42.672 25.5604C43.1194 25.4548 43.5795 25.2914 44.0521 25.0702V27.1894C43.6398 27.4056 43.1898 27.564 42.7021 27.6646C42.2144 27.7651 41.5985 27.8154 40.8544 27.8154C39.9946 27.8154 39.2254 27.662 38.5466 27.3553C37.8678 27.0486 37.3324 26.5735 36.9402 25.9299C36.5531 25.2864 36.3595 24.4593 36.3595 23.4487C36.3595 22.423 36.5355 21.5808 36.8874 20.9222C37.2394 20.2585 37.7321 19.7683 38.3656 19.4515C38.9991 19.1298 39.7357 18.9689 40.5753 18.9689ZM40.6809 20.975C40.334 20.975 40.0424 21.0856 39.8061 21.3068C39.5748 21.523 39.4391 21.8649 39.3988 22.3325H41.9329C41.9278 22.0811 41.8776 21.8523 41.782 21.6462C41.6865 21.4401 41.5457 21.2767 41.3597 21.156C41.1787 21.0353 40.9524 20.975 40.6809 20.975ZM51.4959 21.3294H49.6783V27.6646H46.7294V21.3294H45.5982V19.8814L46.7898 19.1574V19.0141C46.7898 18.275 46.8878 17.6742 47.0839 17.2116C47.28 16.744 47.5917 16.3996 48.0191 16.1784C48.4465 15.9572 49.0046 15.8466 49.6934 15.8466C50.1358 15.8466 50.5355 15.8818 50.8925 15.9521C51.2545 16.0225 51.6316 16.1231 52.0238 16.2538L51.3903 18.1619C51.2445 18.1217 51.0811 18.0865 50.9001 18.0563C50.7241 18.0261 50.533 18.0111 50.3269 18.0111C50.1006 18.0111 49.9347 18.0814 49.8291 18.2222C49.7286 18.358 49.6783 18.5817 49.6783 18.8934V19.1197H51.4959V21.3294ZM60.8175 23.3733C60.8175 24.0872 60.7195 24.7207 60.5234 25.2738C60.3273 25.8269 60.0432 26.2919 59.6712 26.669C59.2991 27.0461 58.8491 27.3327 58.3212 27.5288C57.7933 27.7199 57.1975 27.8154 56.5338 27.8154C55.9154 27.8154 55.3472 27.7199 54.8293 27.5288C54.3165 27.3327 53.869 27.0461 53.4869 26.669C53.1048 26.2919 52.8081 25.8269 52.597 25.2738C52.3908 24.7207 52.2878 24.0872 52.2878 23.3733C52.2878 22.428 52.4587 21.6286 52.8006 20.975C53.1475 20.3214 53.6402 19.8236 54.2788 19.4817C54.9223 19.1398 55.6891 18.9689 56.579 18.9689C57.3986 18.9689 58.1276 19.1398 58.7661 19.4817C59.4047 19.8236 59.905 20.3214 60.267 20.975C60.634 21.6286 60.8175 22.428 60.8175 23.3733ZM55.2818 23.3733C55.2818 23.861 55.3246 24.2733 55.4101 24.6101C55.4955 24.942 55.6313 25.1959 55.8173 25.3718C56.0084 25.5428 56.2572 25.6283 56.5639 25.6283C56.8706 25.6283 57.1145 25.5428 57.2955 25.3718C57.4765 25.1959 57.6072 24.942 57.6877 24.6101C57.7731 24.2733 57.8159 23.861 57.8159 23.3733C57.8159 22.8856 57.7731 22.4783 57.6877 22.1515C57.6072 21.8247 57.474 21.5783 57.288 21.4124C57.107 21.2465 56.8606 21.1635 56.5489 21.1635C56.1014 21.1635 55.7771 21.3496 55.576 21.7216C55.3799 22.0937 55.2818 22.6442 55.2818 23.3733ZM67.6655 18.9689C67.8264 18.9689 67.9948 18.9814 68.1708 19.0066C68.3467 19.0267 68.4775 19.0443 68.5629 19.0594L68.299 21.8423C68.2034 21.8171 68.0803 21.797 67.9294 21.782C67.7786 21.7618 67.5674 21.7518 67.2959 21.7518C67.1099 21.7518 66.9113 21.7694 66.7001 21.8046C66.4889 21.8398 66.2878 21.9152 66.0968 22.0308C65.9107 22.1414 65.7574 22.3124 65.6367 22.5437C65.5161 22.7699 65.4557 23.0766 65.4557 23.4638V27.6646H62.5069V19.1197H64.7015L65.1616 20.4848H65.3049C65.4607 20.2032 65.6593 19.9493 65.9007 19.723C66.147 19.4918 66.4211 19.3082 66.7227 19.1725C67.0294 19.0367 67.3437 18.9689 67.6655 18.9689ZM73.6084 18.9689C74.438 18.9689 75.1545 19.1147 75.7578 19.4063C76.3611 19.6929 76.8262 20.1253 77.153 20.7035C77.4798 21.2817 77.6433 22.0057 77.6433 22.8755V24.1878H72.3715C72.3967 24.6353 72.5626 25.0023 72.8693 25.2889C73.181 25.5755 73.6386 25.7188 74.2419 25.7188C74.7749 25.7188 75.2626 25.666 75.705 25.5604C76.1525 25.4548 76.6125 25.2914 77.0852 25.0702V27.1894C76.6729 27.4056 76.2229 27.564 75.7352 27.6646C75.2475 27.7651 74.6316 27.8154 73.8874 27.8154C73.0277 27.8154 72.2584 27.662 71.5797 27.3553C70.9009 27.0486 70.3654 26.5735 69.9733 25.9299C69.5861 25.2864 69.3925 24.4593 69.3925 23.4487C69.3925 22.423 69.5685 21.5808 69.9205 20.9222C70.2724 20.2585 70.7651 19.7683 71.3986 19.4515C72.0322 19.1298 72.7687 18.9689 73.6084 18.9689ZM73.714 20.975C73.3671 20.975 73.0754 21.0856 72.8391 21.3068C72.6078 21.523 72.4721 21.8649 72.4319 22.3325H74.9659C74.9609 22.0811 74.9106 21.8523 74.8151 21.6462C74.7196 21.4401 74.5788 21.2767 74.3927 21.156C74.2117 21.0353 73.9855 20.975 73.714 20.975Z" fill="white"/>
<defs>
<linearGradient id="paint0_linear_480_140" x1="0.446777" y1="21.6645" x2="103.16" y2="21.6645" gradientUnits="userSpaceOnUse">
<stop stop-color="#015BE4"/>
<stop stop-color="#015BE4"/>
<stop offset="1" stop-color="#4AB11F"/>
</linearGradient>
</defs>
</svg>
