<svg width="197" height="39" viewBox="0 0 197 39" fill="none" xmlns="http://www.w3.org/2000/svg">
<path d="M19 0.0356445L23.2658 13.1643H37.0701L25.9022 21.2783L30.1679 34.407L19 26.293L7.83208 34.407L12.0978 21.2783L0.929926 13.1643H14.7342L19 0.0356445Z" fill="#D6FF63"/>
<path d="M58 0.0356445L62.2658 13.1643H76.0701L64.9022 21.2783L69.1679 34.407L58 26.293L46.8321 34.407L51.0978 21.2783L39.9299 13.1643H53.7342L58 0.0356445Z" fill="#D6FF63"/>
<path d="M97 0.0356445L101.266 13.1643H115.07L103.902 21.2783L108.168 34.407L97 26.293L85.8321 34.407L90.0978 21.2783L78.9299 13.1643H92.7342L97 0.0356445Z" fill="#D6FF63"/>
<path d="M136 0.0356445L140.266 13.1643H154.07L142.902 21.2783L147.168 34.407L136 26.293L124.832 34.407L129.098 21.2783L117.93 13.1643H131.734L136 0.0356445Z" fill="#D6FF63"/>
<path d="M178 0.0356445L182.266 13.1643H196.07L184.902 21.2783L189.168 34.407L178 26.293L166.832 34.407L171.098 21.2783L159.93 13.1643H173.734L178 0.0356445Z" fill="#CACACA"/>
</svg>
